<?xml version="1.0" encoding="utf-8"?>
<!-- Generator: Adobe Illustrator 27.5.0, SVG Export Plug-In . SVG Version: 6.00 Build 0)  -->
<svg version="1.1" id="_x34_04" xmlns="http://www.w3.org/2000/svg" xmlns:xlink="http://www.w3.org/1999/xlink" x="0px" y="0px"
	 viewBox="0 0 3000 2025" style="enable-background:new 0 0 3000 2025;" xml:space="preserve">
<rect style="fill:#F1F2F2;" width="3000" height="2025"/>
<g>
	<ellipse style="opacity:0.27;fill:#BCBEC0;" cx="1525.775" cy="921.749" rx="748.595" ry="32.841"/>
	<g>
		<g>
			<g>
				<defs>
					<path id="XMLID_6_" d="M954.726,725.514l-0.955,192.183c-0.016,3.288-2.695,5.941-5.984,5.925l-33.7-0.167
						c-3.288-0.016-5.941-2.695-5.925-5.984l0.955-192.183c0.016-3.288,2.695-5.941,5.984-5.925l33.7,0.167
						C952.089,719.547,954.742,722.226,954.726,725.514z"/>
				</defs>
				<use xlink:href="#XMLID_6_"  style="overflow:visible;fill:#F7941D;"/>
				<clipPath id="XMLID_00000120537438107570846460000010168350492038649253_">
					<use xlink:href="#XMLID_6_"  style="overflow:visible;"/>
				</clipPath>
				
					<rect x="838.122" y="806.093" transform="matrix(0.005 -1 1 0.005 120.6574 1764.436)" style="clip-path:url(#XMLID_00000120537438107570846460000010168350492038649253_);fill:#F26522;" width="217.636" height="30.991"/>
				<path style="clip-path:url(#XMLID_00000120537438107570846460000010168350492038649253_);fill:#F9AB5D;" d="M915.965,725.072
					l-0.957,192.682c-0.024,4.905-4.02,8.861-8.925,8.837l0,0c-4.905-0.024-8.861-4.02-8.837-8.925l0.957-192.682
					c0.024-4.905,4.02-8.861,8.925-8.837l0,0C912.033,716.172,915.989,720.167,915.965,725.072z"/>
			</g>
			<g>
				<g>
					
						<rect x="921.62" y="867.555" transform="matrix(0.005 -1 1 0.005 36.1241 1817.0227)" style="fill:#434D6A;" width="18.965" height="45.609"/>
					
						<rect x="933.022" y="879.014" transform="matrix(0.005 -1 1 0.005 47.4128 1828.481)" style="fill:#2A2D4B;" width="18.965" height="22.804"/>
					
						<rect x="902.239" y="886.84" transform="matrix(0.005 -1 1 0.005 16.9403 1797.5507)" style="fill:#52607C;" width="18.964" height="6.846"/>
				</g>
				<g>
					
						<rect x="922.304" y="729.821" transform="matrix(0.005 -1 1 0.005 174.5418 1680.662)" style="fill:#434D6A;" width="18.964" height="45.609"/>
					
						<rect x="933.706" y="741.28" transform="matrix(0.005 -1 1 0.005 185.8305 1692.1202)" style="fill:#2A2D4B;" width="18.964" height="22.804"/>
					
						<rect x="902.923" y="749.106" transform="matrix(0.005 -1 1 0.005 155.3532 1661.1853)" style="fill:#52607C;" width="18.965" height="6.846"/>
				</g>
			</g>
		</g>
		<g>
			<g>
				<defs>
					<path id="XMLID_5_" d="M1000.468,725.741l-0.955,192.183c-0.016,3.289-2.695,5.941-5.984,5.925l-33.7-0.167
						c-3.289-0.016-5.941-2.695-5.925-5.984l0.955-192.183c0.016-3.289,2.695-5.941,5.984-5.925l33.7,0.167
						C997.832,719.774,1000.485,722.453,1000.468,725.741z"/>
				</defs>
				<use xlink:href="#XMLID_5_"  style="overflow:visible;fill:#F7941D;"/>
				<clipPath id="XMLID_00000139251511490754701640000006060348295094170551_">
					<use xlink:href="#XMLID_5_"  style="overflow:visible;"/>
				</clipPath>
				
					<rect x="883.864" y="806.32" transform="matrix(0.005 -1 1 0.005 165.9452 1810.4038)" style="clip-path:url(#XMLID_00000139251511490754701640000006060348295094170551_);fill:#F26522;" width="217.636" height="30.991"/>
				<path style="clip-path:url(#XMLID_00000139251511490754701640000006060348295094170551_);fill:#F9AB5D;" d="M961.707,725.299
					l-0.957,192.682c-0.024,4.905-4.02,8.861-8.925,8.837l0,0c-4.905-0.024-8.861-4.02-8.837-8.925l0.957-192.682
					c0.024-4.905,4.02-8.861,8.925-8.837l0,0C957.775,716.399,961.732,720.395,961.707,725.299z"/>
			</g>
			<g>
				<g>
					
						<rect x="967.363" y="867.782" transform="matrix(0.005 -1 1 0.005 81.4159 1862.9944)" style="fill:#434D6A;" width="18.964" height="45.609"/>
					
						<rect x="978.765" y="879.241" transform="matrix(0.005 -1 1 0.005 92.7046 1874.4526)" style="fill:#2A2D4B;" width="18.964" height="22.804"/>
					
						<rect x="947.981" y="887.067" transform="matrix(0.005 -1 1 0.005 62.2336 1843.5236)" style="fill:#52607C;" width="18.964" height="6.846"/>
				</g>
				<g>
					
						<rect x="968.047" y="730.048" transform="matrix(0.005 -1 1 0.005 219.83 1726.6301)" style="fill:#434D6A;" width="18.965" height="45.609"/>
					
						<rect x="979.449" y="741.507" transform="matrix(0.005 -1 1 0.005 231.1187 1738.0884)" style="fill:#2A2D4B;" width="18.964" height="22.804"/>
					
						<rect x="948.666" y="749.333" transform="matrix(0.005 -1 1 0.005 200.6414 1707.1534)" style="fill:#52607C;" width="18.965" height="6.846"/>
				</g>
			</g>
		</g>
		<g>
			<g>
				<defs>
					<path id="XMLID_4_" d="M1045.782,725.966l-0.955,192.183c-0.016,3.289-2.695,5.941-5.984,5.925l-33.7-0.167
						c-3.289-0.016-5.941-2.695-5.925-5.984l0.955-192.183c0.016-3.289,2.695-5.941,5.984-5.925l33.7,0.167
						C1043.146,719.999,1045.799,722.678,1045.782,725.966z"/>
				</defs>
				<use xlink:href="#XMLID_4_"  style="overflow:visible;fill:#F7941D;"/>
				<clipPath id="XMLID_00000083786257715940860280000013287027289578794929_">
					<use xlink:href="#XMLID_4_"  style="overflow:visible;"/>
				</clipPath>
				
					<rect x="929.178" y="806.546" transform="matrix(0.005 -1 1 0.005 210.8089 1855.9412)" style="clip-path:url(#XMLID_00000083786257715940860280000013287027289578794929_);fill:#F26522;" width="217.636" height="30.991"/>
				<path style="clip-path:url(#XMLID_00000083786257715940860280000013287027289578794929_);fill:#F9AB5D;" d="M1007.021,725.525
					l-0.957,192.682c-0.024,4.905-4.02,8.861-8.925,8.837l0,0c-4.905-0.024-8.861-4.02-8.837-8.925l0.957-192.682
					c0.024-4.905,4.02-8.861,8.925-8.837h0C1003.089,716.624,1007.046,720.62,1007.021,725.525z"/>
			</g>
			<g>
				<g>
					
						<rect x="1012.676" y="868.007" transform="matrix(0.005 -1 1 0.005 126.2809 1908.5328)" style="fill:#434D6A;" width="18.964" height="45.609"/>
					
						<rect x="1024.078" y="879.466" transform="matrix(0.005 -1 1 0.005 137.5696 1919.9911)" style="fill:#2A2D4B;" width="18.964" height="22.804"/>
					
						<rect x="993.295" y="887.292" transform="matrix(0.005 -1 1 0.005 107.0975 1889.0609)" style="fill:#52607C;" width="18.964" height="6.846"/>
				</g>
				<g>
					
						<rect x="1013.361" y="730.273" transform="matrix(0.005 -1 1 0.005 264.6884 1772.1635)" style="fill:#434D6A;" width="18.964" height="45.609"/>
					
						<rect x="1024.763" y="741.732" transform="matrix(0.005 -1 1 0.005 275.9771 1783.6217)" style="fill:#2A2D4B;" width="18.964" height="22.804"/>
					
						<rect x="993.979" y="749.559" transform="matrix(0.005 -1 1 0.005 245.5051 1752.6907)" style="fill:#52607C;" width="18.965" height="6.846"/>
				</g>
			</g>
		</g>
	</g>
	<g>
		<path style="fill:#D1D3D4;" d="M1072.599,825.42H853.99v-74.913l225.42-303.055h119.179v282.625h67.422v95.343h-67.422v98.068
			h-125.99V825.42z M1090.988,730.077V593.873l-100.11,136.204H1090.988z"/>
		<path style="fill:#D1D3D4;" d="M1389.279,904.08c-33.147-19.75-58.685-48.236-76.616-85.471
			c-17.941-37.222-26.9-81.489-26.9-132.799c0-51.3,8.853-95.568,26.559-132.801c17.708-37.222,43.011-65.825,75.935-85.808
			c32.913-19.975,71.849-29.966,116.796-29.966c44.949,0,83.872,9.992,116.798,29.966c32.913,19.983,58.227,48.586,75.933,85.808
			c17.706,37.233,26.561,81.501,26.561,132.801c0,51.31-8.969,95.577-26.9,132.799c-17.943,37.235-43.482,65.721-76.616,85.471
			c-33.147,19.75-71.743,29.625-115.776,29.625C1461.009,933.705,1422.415,923.83,1389.279,904.08z M1575.88,785.24
			c16.794-23.603,25.199-56.291,25.199-98.068c0-42.222-8.291-75.477-24.86-99.771c-16.578-24.281-40.297-36.434-71.166-36.434
			c-30.88,0-54.599,12.152-71.166,36.434c-16.58,24.294-24.858,57.549-24.858,99.771c0,41.777,8.395,74.466,25.197,98.068
			c16.792,23.613,40.405,35.413,70.827,35.413C1535.464,820.654,1559.077,808.854,1575.88,785.24z"/>
		<path style="fill:#D1D3D4;" d="M1962.703,825.42h-218.609v-74.913l225.42-303.055h119.179v282.625h67.422v95.343h-67.422v98.068
			h-125.99V825.42z M1981.092,730.077V593.873l-100.11,136.204H1981.092z"/>
	</g>
	<g>
		<g>
			<g>
				<g>
					<g>
						<defs>
							<path id="XMLID_1_" d="M1651.824,844.576l-189.153,2.106c-3.237,0.036-5.89-2.558-5.926-5.795l-0.369-33.168
								c-0.036-3.237,2.558-5.89,5.795-5.926l189.153-2.106c3.237-0.036,5.89,2.559,5.926,5.795l0.369,33.168
								C1657.656,841.887,1655.061,844.54,1651.824,844.576z"/>
						</defs>
						<use xlink:href="#XMLID_1_"  style="overflow:visible;fill:#F7941D;"/>
						<clipPath id="XMLID_00000098931626526951111440000010016247830358184638_">
							<use xlink:href="#XMLID_1_"  style="overflow:visible;"/>
						</clipPath>
						
							<rect x="1450.041" y="823.183" transform="matrix(0.9999 -0.0111 0.0111 0.9999 -9.2372 17.3865)" style="clip-path:url(#XMLID_00000098931626526951111440000010016247830358184638_);fill:#F26522;" width="214.215" height="30.504"/>
						<path style="clip-path:url(#XMLID_00000098931626526951111440000010016247830358184638_);fill:#F9AB5D;" d="M1651.645,806.422
							l-189.644,2.111c-4.827,0.054-8.784-3.816-8.838-8.644l0,0c-0.054-4.828,3.816-8.784,8.644-8.838l189.644-2.111
							c4.828-0.054,8.784,3.816,8.838,8.644l0,0C1660.343,802.411,1656.473,806.368,1651.645,806.422z"/>
					</g>
					<g>
						<g>
							
								<rect x="1479.884" y="801.493" transform="matrix(0.9999 -0.0111 0.0111 0.9999 -9.08 16.6294)" style="fill:#434D6A;" width="18.666" height="44.892"/>
							
								<rect x="1480.009" y="823.938" transform="matrix(0.9999 -0.0111 0.0111 0.9999 -9.2049 16.6315)" style="fill:#2A2D4B;" width="18.666" height="22.446"/>
							
								<rect x="1479.672" y="801.494" transform="matrix(0.9999 -0.0111 0.0111 0.9999 -8.8677 16.626)" style="fill:#52607C;" width="18.666" height="6.738"/>
						</g>
						<g>
							
								<rect x="1615.446" y="799.984" transform="matrix(0.9999 -0.0111 0.0111 0.9999 -9.0548 18.1384)" style="fill:#434D6A;" width="18.666" height="44.892"/>
							
								<rect x="1615.571" y="822.429" transform="matrix(0.9999 -0.0111 0.0111 0.9999 -9.1797 18.1405)" style="fill:#2A2D4B;" width="18.666" height="22.446"/>
							
								<rect x="1615.234" y="799.985" transform="matrix(0.9999 -0.0111 0.0111 0.9999 -8.8425 18.135)" style="fill:#52607C;" width="18.666" height="6.738"/>
						</g>
					</g>
				</g>
				<g>
					<g>
						<defs>
							<path id="XMLID_2_" d="M1652.326,889.597l-189.153,2.106c-3.237,0.036-5.89-2.559-5.926-5.795l-0.369-33.168
								c-0.036-3.237,2.559-5.89,5.795-5.926l189.153-2.106c3.237-0.036,5.89,2.559,5.926,5.795l0.369,33.168
								C1658.157,886.908,1655.562,889.561,1652.326,889.597z"/>
						</defs>
						<use xlink:href="#XMLID_2_"  style="overflow:visible;fill:#F7941D;"/>
						<clipPath id="XMLID_00000093146271798301117970000012183043585595701949_">
							<use xlink:href="#XMLID_2_"  style="overflow:visible;"/>
						</clipPath>
						
							<rect x="1450.542" y="868.205" transform="matrix(0.9999 -0.0111 0.0111 0.9999 -9.7384 17.3949)" style="clip-path:url(#XMLID_00000093146271798301117970000012183043585595701949_);fill:#F26522;" width="214.215" height="30.504"/>
						<path style="clip-path:url(#XMLID_00000093146271798301117970000012183043585595701949_);fill:#F9AB5D;" d="M1652.146,851.443
							l-189.644,2.111c-4.828,0.054-8.785-3.816-8.838-8.644l0,0c-0.054-4.828,3.816-8.784,8.644-8.838l189.644-2.111
							c4.827-0.054,8.785,3.816,8.838,8.644l0,0C1660.844,847.432,1656.974,851.39,1652.146,851.443z"/>
					</g>
					<g>
						<g>
							
								<rect x="1480.385" y="846.514" transform="matrix(0.9999 -0.0111 0.0111 0.9999 -9.5812 16.6379)" style="fill:#434D6A;" width="18.666" height="44.892"/>
							
								<rect x="1480.51" y="868.96" transform="matrix(0.9999 -0.0111 0.0111 0.9999 -9.7062 16.64)" style="fill:#2A2D4B;" width="18.666" height="22.446"/>
							
								<rect x="1480.173" y="846.515" transform="matrix(0.9999 -0.0111 0.0111 0.9999 -9.3688 16.6342)" style="fill:#52607C;" width="18.666" height="6.738"/>
						</g>
						<g>
							
								<rect x="1615.947" y="845.005" transform="matrix(0.9999 -0.0111 0.0111 0.9999 -9.556 18.1469)" style="fill:#434D6A;" width="18.666" height="44.892"/>
							
								<rect x="1616.072" y="867.45" transform="matrix(0.9999 -0.0111 0.0111 0.9999 -9.681 18.149)" style="fill:#2A2D4B;" width="18.666" height="22.446"/>
							
								<rect x="1615.735" y="845.006" transform="matrix(0.9999 -0.0111 0.0111 0.9999 -9.3436 18.1433)" style="fill:#52607C;" width="18.666" height="6.738"/>
						</g>
					</g>
				</g>
				<g>
					<g>
						<defs>
							<path id="XMLID_3_" d="M1652.822,934.196l-189.153,2.106c-3.237,0.036-5.89-2.559-5.926-5.795l-0.369-33.168
								c-0.036-3.237,2.559-5.89,5.795-5.926l189.153-2.106c3.237-0.036,5.89,2.559,5.926,5.795l0.369,33.168
								C1658.653,931.508,1656.059,934.161,1652.822,934.196z"/>
						</defs>
						<use xlink:href="#XMLID_3_"  style="overflow:visible;fill:#F7941D;"/>
						<clipPath id="XMLID_00000162324748579193758350000017211702738867856822_">
							<use xlink:href="#XMLID_3_"  style="overflow:visible;"/>
						</clipPath>
						
							<rect x="1451.039" y="912.804" transform="matrix(0.9999 -0.0111 0.0111 0.9999 -10.2348 17.4032)" style="clip-path:url(#XMLID_00000162324748579193758350000017211702738867856822_);fill:#F26522;" width="214.215" height="30.504"/>
						<path style="clip-path:url(#XMLID_00000162324748579193758350000017211702738867856822_);fill:#F9AB5D;" d="M1652.643,896.043
							l-189.644,2.111c-4.827,0.054-8.784-3.816-8.838-8.644l0,0c-0.054-4.827,3.816-8.784,8.643-8.838l189.644-2.111
							c4.828-0.054,8.784,3.816,8.838,8.644l0,0C1661.34,892.032,1657.47,895.989,1652.643,896.043z"/>
					</g>
					<g>
						<g>
							
								<rect x="1480.882" y="891.114" transform="matrix(0.9999 -0.0111 0.0111 0.9999 -10.0777 16.6462)" style="fill:#434D6A;" width="18.666" height="44.892"/>
							
								<rect x="1481.007" y="913.559" transform="matrix(0.9999 -0.0111 0.0111 0.9999 -10.2026 16.6483)" style="fill:#2A2D4B;" width="18.666" height="22.446"/>
							
								<rect x="1480.669" y="891.115" transform="matrix(0.9999 -0.0111 0.0111 0.9999 -9.8653 16.6425)" style="fill:#52607C;" width="18.666" height="6.738"/>
						</g>
						<g>
							
								<rect x="1616.444" y="889.604" transform="matrix(0.9999 -0.0111 0.0111 0.9999 -10.0524 18.1551)" style="fill:#434D6A;" width="18.666" height="44.892"/>
							
								<rect x="1616.569" y="912.05" transform="matrix(0.9999 -0.0111 0.0111 0.9999 -10.1774 18.1572)" style="fill:#2A2D4B;" width="18.666" height="22.446"/>
							
								<rect x="1616.231" y="889.606" transform="matrix(0.9999 -0.0111 0.0111 0.9999 -9.8402 18.1517)" style="fill:#52607C;" width="18.666" height="6.738"/>
						</g>
					</g>
				</g>
			</g>
			<g>
				<g>
					<g>
						<defs>
							<path id="XMLID_10_" d="M2040.843,727.299l2.106,189.153c0.036,3.237-2.559,5.89-5.795,5.926l-33.168,0.369
								c-3.237,0.036-5.89-2.559-5.926-5.795l-2.106-189.153c-0.036-3.237,2.559-5.89,5.795-5.926l33.168-0.369
								C2038.153,721.467,2040.806,724.062,2040.843,727.299z"/>
						</defs>
						<use xlink:href="#XMLID_10_"  style="overflow:visible;fill:#F7941D;"/>
						<clipPath id="XMLID_00000012461770007018027750000005933679204052106374_">
							<use xlink:href="#XMLID_10_"  style="overflow:visible;"/>
						</clipPath>
						
							<rect x="1927.594" y="806.722" transform="matrix(-0.0111 -0.9999 0.9999 -0.0111 1235.4297 2865.7007)" style="clip-path:url(#XMLID_00000012461770007018027750000005933679204052106374_);fill:#F26522;" width="214.215" height="30.504"/>
						<path style="clip-path:url(#XMLID_00000012461770007018027750000005933679204052106374_);fill:#F9AB5D;" d="M2002.689,727.478
							l2.111,189.644c0.054,4.827-3.816,8.784-8.644,8.838l0,0c-4.827,0.054-8.784-3.816-8.838-8.644l-2.111-189.644
							c-0.054-4.827,3.816-8.784,8.644-8.838l0,0C1998.678,718.781,2002.635,722.65,2002.689,727.478z"/>
					</g>
					<g>
						<g>
							
								<rect x="2010.872" y="867.46" transform="matrix(-0.0111 -0.9999 0.9999 -0.0111 1152.8551 2919.8975)" style="fill:#434D6A;" width="18.666" height="44.892"/>
							
								<rect x="2022.094" y="878.558" transform="matrix(-0.0111 -0.9999 0.9999 -0.0111 1164.3273 2930.9927)" style="fill:#2A2D4B;" width="18.666" height="22.446"/>
							
								<rect x="1991.797" y="886.749" transform="matrix(-0.0111 -0.9999 0.9999 -0.0111 1133.344 2901.0332)" style="fill:#52607C;" width="18.666" height="6.738"/>
						</g>
						<g>
							
								<rect x="2009.363" y="731.898" transform="matrix(-0.0111 -0.9999 0.9999 -0.0111 1286.8718 2781.3125)" style="fill:#434D6A;" width="18.666" height="44.892"/>
							
								<rect x="2020.585" y="742.996" transform="matrix(-0.0111 -0.9999 0.9999 -0.0111 1298.344 2792.4077)" style="fill:#2A2D4B;" width="18.666" height="22.446"/>
							
								<rect x="1990.287" y="751.187" transform="matrix(-0.0111 -0.9999 0.9999 -0.0111 1267.3822 2762.4568)" style="fill:#52607C;" width="18.666" height="6.738"/>
						</g>
					</g>
				</g>
				<g>
					<g>
						<defs>
							<path id="XMLID_9_" d="M2085.864,726.797l2.106,189.153c0.036,3.237-2.558,5.89-5.795,5.926l-33.168,0.369
								c-3.237,0.036-5.89-2.559-5.926-5.795l-2.106-189.153c-0.036-3.237,2.559-5.89,5.795-5.926l33.168-0.369
								C2083.175,720.966,2085.828,723.561,2085.864,726.797z"/>
						</defs>
						<use xlink:href="#XMLID_9_"  style="overflow:visible;fill:#F7941D;"/>
						<clipPath id="XMLID_00000156552102160244724640000001838079657137433509_">
							<use xlink:href="#XMLID_9_"  style="overflow:visible;"/>
						</clipPath>
						
							<rect x="1972.616" y="806.221" transform="matrix(-0.0111 -0.9999 0.9999 -0.0111 1281.4524 2910.2122)" style="clip-path:url(#XMLID_00000156552102160244724640000001838079657137433509_);fill:#F26522;" width="214.215" height="30.504"/>
						<path style="clip-path:url(#XMLID_00000156552102160244724640000001838079657137433509_);fill:#F9AB5D;" d="M2047.71,726.977
							l2.111,189.644c0.054,4.827-3.816,8.784-8.644,8.838h0c-4.828,0.054-8.785-3.816-8.838-8.644l-2.111-189.644
							c-0.054-4.828,3.816-8.785,8.644-8.838l0,0C2043.699,718.279,2047.656,722.149,2047.71,726.977z"/>
					</g>
					<g>
						<g>
							
								<rect x="2055.894" y="866.959" transform="matrix(-0.0111 -0.9999 0.9999 -0.0111 1198.868 2964.4045)" style="fill:#434D6A;" width="18.666" height="44.892"/>
							
								<rect x="2067.116" y="878.057" transform="matrix(-0.0111 -0.9999 0.9999 -0.0111 1210.3402 2975.4998)" style="fill:#2A2D4B;" width="18.666" height="22.446"/>
							
								<rect x="2036.818" y="886.248" transform="matrix(-0.0111 -0.9999 0.9999 -0.0111 1179.3567 2945.54)" style="fill:#52607C;" width="18.666" height="6.738"/>
						</g>
						<g>
							
								<rect x="2054.384" y="731.397" transform="matrix(-0.0111 -0.9999 0.9999 -0.0111 1332.8956 2825.8245)" style="fill:#434D6A;" width="18.666" height="44.892"/>
							
								<rect x="2065.607" y="742.495" transform="matrix(-0.0111 -0.9999 0.9999 -0.0111 1344.3677 2836.9197)" style="fill:#2A2D4B;" width="18.666" height="22.446"/>
							
								<rect x="2035.309" y="750.686" transform="matrix(-0.0111 -0.9999 0.9999 -0.0111 1313.3954 2806.9646)" style="fill:#52607C;" width="18.666" height="6.738"/>
						</g>
					</g>
				</g>
				<g>
					<g>
						<defs>
							<path id="XMLID_8_" d="M2130.463,726.301l2.106,189.153c0.036,3.237-2.559,5.89-5.795,5.926l-33.168,0.369
								c-3.237,0.036-5.89-2.559-5.926-5.795l-2.106-189.153c-0.036-3.237,2.559-5.89,5.795-5.926l33.168-0.369
								C2127.774,720.47,2130.427,723.064,2130.463,726.301z"/>
						</defs>
						<use xlink:href="#XMLID_8_"  style="overflow:visible;fill:#F7941D;"/>
						<clipPath id="XMLID_00000142155669105576653990000014521773692893133956_">
							<use xlink:href="#XMLID_8_"  style="overflow:visible;"/>
						</clipPath>
						
							<rect x="2017.215" y="805.724" transform="matrix(-0.0111 -0.9999 0.9999 -0.0111 1327.0448 2954.3066)" style="clip-path:url(#XMLID_00000142155669105576653990000014521773692893133956_);fill:#F26522;" width="214.215" height="30.504"/>
						<path style="clip-path:url(#XMLID_00000142155669105576653990000014521773692893133956_);fill:#F9AB5D;" d="M2092.309,726.48
							l2.111,189.644c0.054,4.827-3.816,8.785-8.644,8.838l0,0c-4.828,0.054-8.785-3.816-8.838-8.644l-2.111-189.644
							c-0.054-4.827,3.816-8.784,8.644-8.838l0,0C2088.299,717.783,2092.256,721.653,2092.309,726.48z"/>
					</g>
					<g>
						<g>
							
								<rect x="2100.493" y="866.462" transform="matrix(-0.0111 -0.9999 0.9999 -0.0111 1244.4491 3008.4944)" style="fill:#434D6A;" width="18.666" height="44.892"/>
							
								<rect x="2111.715" y="877.56" transform="matrix(-0.0111 -0.9999 0.9999 -0.0111 1255.9211 3019.5896)" style="fill:#2A2D4B;" width="18.666" height="22.446"/>
							
								<rect x="2081.417" y="885.751" transform="matrix(-0.0111 -0.9999 0.9999 -0.0111 1224.9713 2989.644)" style="fill:#52607C;" width="18.666" height="6.738"/>
						</g>
						<g>
							
								<rect x="2098.984" y="730.9" transform="matrix(-0.0111 -0.9999 0.9999 -0.0111 1378.4879 2869.9189)" style="fill:#434D6A;" width="18.666" height="44.892"/>
							
								<rect x="2110.206" y="741.998" transform="matrix(-0.0111 -0.9999 0.9999 -0.0111 1389.9601 2881.0142)" style="fill:#2A2D4B;" width="18.666" height="22.446"/>
							
								<rect x="2079.908" y="750.189" transform="matrix(-0.0111 -0.9999 0.9999 -0.0111 1358.9877 2851.0593)" style="fill:#52607C;" width="18.666" height="6.738"/>
						</g>
					</g>
				</g>
			</g>
			<path style="fill:#2A2D4B;" d="M798.611,1178.522c-41.051,0-74.448-33.397-74.448-74.448c0-41.05,33.397-74.448,74.448-74.448
				h876.553c28.123,0,51.003-22.88,51.003-51.003v-4.982h75.534c27.383,0,49.661-22.278,49.661-49.661v-205.15
				c0-26.73,21.747-48.478,48.478-48.478h142.708c9.413,0,17.072,7.658,17.072,17.072v0.801h-20.978
				c-12.426,0-22.535,10.109-22.535,22.535v10.906h8.197v-10.906c0-7.906,6.432-14.338,14.338-14.338h20.978v25.244h8.198v-25.244
				h22.064c7.906,0,14.337,6.432,14.337,14.338v9.929h8.198v-9.929c0-12.426-10.109-22.535-22.535-22.535h-22.064v-0.801
				c0-13.933-11.336-25.269-25.27-25.269h-142.708c-31.251,0-56.675,25.424-56.675,56.675v205.15
				c0,22.863-18.6,41.464-41.463,41.464h-75.534v-61.256c0-19.685-13.88-36.18-32.365-40.236v-23.869
				c0-12.974-10.555-23.529-23.529-23.529h-12.837v8.197h12.837c8.453,0,15.332,6.878,15.332,15.331v22.921
				c-0.213-0.003-0.424-0.016-0.638-0.016h-27.029v8.197h27.029c0.214,0,0.425,0.012,0.638,0.016v24.77
				c0,6.468-5.262,11.73-11.73,11.73h-15.439v8.197h15.439c10.988,0,19.928-8.94,19.928-19.928v-23.575
				c13.92,3.874,24.168,16.654,24.168,31.792v74.435c0,23.603-19.202,42.805-42.805,42.805h-541.876V749.742
				c0-28.606-23.273-51.879-51.878-51.879h-41.487c-12.186,0-22.1,9.914-22.1,22.1h8.197c0-7.666,6.237-13.902,13.902-13.902h41.487
				c24.086,0,43.681,19.595,43.681,43.681v271.687H798.611c-45.571,0-82.645,37.075-82.645,82.646s37.075,82.645,82.645,82.645
				h1453.112v-8.197H798.611z"/>
		</g>
		<g>
			<rect x="2219.568" y="1054.965" style="fill:#434D6A;" width="8.49" height="48.833"/>
			<rect x="2204.231" y="1103.798" style="fill:#2A2D4B;" width="39.164" height="7.425"/>
			<rect x="2203.722" y="1047.54" style="fill:#2A2D4B;" width="39.164" height="7.424"/>
			<path style="fill:#DA927E;" d="M2280.319,1118.653h-112.958c-2.052,0-3.715-1.663-3.715-3.715l0,0
				c0-2.052,1.663-3.715,3.715-3.715h112.958c2.052,0,3.715,1.663,3.715,3.715l0,0
				C2284.034,1116.99,2282.371,1118.653,2280.319,1118.653z"/>
			<path style="fill:#DA927E;" d="M2280.319,1230.414h-112.958c-2.052,0-3.715-1.663-3.715-3.715l0,0
				c0-2.052,1.663-3.715,3.715-3.715h112.958c2.052,0,3.715,1.663,3.715,3.715l0,0
				C2284.034,1228.75,2282.371,1230.414,2280.319,1230.414z"/>
			<rect x="2171.139" y="1118.653" style="fill:#995042;" width="104.331" height="104.331"/>
			<g>
				<defs>
					<path id="XMLID_7_" d="M2257.704,1047.54h-68.799c-2.017,0-3.653-1.635-3.653-3.653v-13.245c0-2.017,1.635-3.652,3.653-3.652
						h68.799c2.017,0,3.653,1.635,3.653,3.652v13.245C2261.356,1045.905,2259.721,1047.54,2257.704,1047.54z"/>
				</defs>
				<use xlink:href="#XMLID_7_"  style="overflow:visible;fill:#F26522;"/>
				<clipPath id="XMLID_00000176734797975465797700000003433833182409211565_">
					<use xlink:href="#XMLID_7_"  style="overflow:visible;"/>
				</clipPath>
				<path style="clip-path:url(#XMLID_00000176734797975465797700000003433833182409211565_);fill:#F7941D;" d="M2264.302,1034.339
					h-77.556c-3.513,0-6.361-2.848-6.361-6.361l0,0c0-3.513,2.848-6.361,6.361-6.361h77.556c3.513,0,6.361,2.848,6.361,6.361l0,0
					C2270.663,1031.491,2267.815,1034.339,2264.302,1034.339z"/>
			</g>
			<polygon style="fill:#754436;" points="2181.719,1118.653 2181.719,1128.383 2247.965,1128.383 2247.965,1214.973 
				2181.719,1214.973 2181.719,1222.984 2275.47,1222.984 2275.47,1118.653 			"/>
			<g>
				<rect x="2187.142" y="1118.653" style="fill:#DA927E;" width="4.511" height="104.331"/>
				<rect x="2209.714" y="1118.653" style="fill:#DA927E;" width="4.511" height="104.331"/>
				<rect x="2232.914" y="1118.653" style="fill:#DA927E;" width="4.511" height="104.331"/>
				<rect x="2255.486" y="1118.653" style="fill:#DA927E;" width="4.511" height="104.331"/>
			</g>
		</g>
	</g>
</g>
<g>
	<g>
		<g>
			<path style="fill:#231F20;" d="M1703.036,1470.758h-406.072c-7.349,0-13.308-5.958-13.308-13.308v-109.032
				c0-7.35,5.958-13.308,13.308-13.308h406.072c7.35,0,13.308,5.958,13.308,13.308v109.032
				C1716.344,1464.8,1710.386,1470.758,1703.036,1470.758z"/>
		</g>
		<g>
			<g>
				<path style="fill:#FFFFFF;" d="M1365.423,1367.071h35.196c6.772,0,12.073,1.677,15.905,5.028
					c3.83,3.353,5.746,8.209,5.746,14.57c0,3.217-0.754,6.142-2.258,8.773c-1.505,2.635-3.558,4.669-6.156,6.105
					c3.556,1.301,6.224,3.268,8.004,5.9c1.778,2.635,2.668,6.072,2.668,10.313c0,4.311-0.975,8.056-2.925,11.236
					c-1.949,3.182-4.617,5.61-8.004,7.286c-3.386,1.677-7.132,2.514-11.236,2.514h-36.94V1367.071z M1397.644,1396.213
					c2.735,0,4.89-0.683,6.465-2.052c1.572-1.368,2.359-3.557,2.359-6.567c0-3.283-0.769-5.541-2.308-6.772
					c-1.539-1.231-3.883-1.847-7.029-1.847h-16.109v17.238H1397.644z M1398.567,1426.894c3.351,0,5.899-0.667,7.644-2.001
					c1.744-1.334,2.616-3.676,2.616-7.029c0-3.419-0.907-5.882-2.719-7.388c-1.813-1.504-4.499-2.258-8.056-2.258h-17.033v18.676
					H1398.567z"/>
			</g>
			<g>
				<path style="fill:#FFFFFF;" d="M1453.261,1367.071h15.289l28.629,71.727h-15.905l-6.156-15.598h-28.424l-6.157,15.598h-16.008
					L1453.261,1367.071z M1471.013,1410.784l-10.159-27.295l-10.158,27.295H1471.013z"/>
			</g>
			<g>
				<path style="fill:#FFFFFF;" d="M1516.572,1435.77c-5.884-3.043-10.433-7.37-13.648-12.98
					c-3.216-5.608-4.823-12.211-4.823-19.805c0-7.593,1.607-14.212,4.823-19.855c3.215-5.644,7.764-9.987,13.648-13.031
					c5.883-3.044,12.655-4.566,20.317-4.566c9.918,0,18.196,2.257,24.833,6.772v14.776c-3.012-2.53-6.449-4.361-10.314-5.49
					c-3.865-1.129-8.26-1.693-13.185-1.693c-7.457,0-13.358,2.07-17.7,6.208c-4.346,4.141-6.517,9.767-6.517,16.88
					c0,7.184,2.188,12.845,6.567,16.983c4.377,4.14,10.262,6.208,17.65,6.208c5.061,0,9.543-0.599,13.442-1.796
					c3.9-1.196,7.525-3.13,10.877-5.798v14.776c-6.295,4.653-14.845,6.978-25.653,6.978
					C1529.228,1440.337,1522.455,1438.813,1516.572,1435.77z"/>
			</g>
			<g>
				<path style="fill:#FFFFFF;" d="M1571.265,1367.071h15.598v31.194l27.09-31.194h18.572l-30.373,34.991l32.426,36.735h-18.573
					l-29.142-32.938v32.938h-15.598V1367.071z"/>
			</g>
		</g>
	</g>
	<g>
		<g>
			<path style="fill:#231F20;" d="M795.216,1547.706h4.741v32.752h15.695v3.978h-20.435V1547.706z"/>
			<path style="fill:#231F20;" d="M843.877,1571.031c0,9.754-6.757,14.005-13.133,14.005c-7.139,0-12.643-5.232-12.643-13.57
				c0-8.828,5.776-14.005,13.079-14.005C838.754,1557.461,843.877,1562.964,843.877,1571.031z M822.951,1571.302
				c0,5.776,3.324,10.136,8.011,10.136c4.577,0,8.011-4.305,8.011-10.245c0-4.469-2.235-10.136-7.902-10.136
				C825.403,1561.058,822.951,1566.289,822.951,1571.302z"/>
			<path style="fill:#231F20;" d="M849.922,1566.289c0-3.106-0.054-5.776-0.218-8.229h4.195l0.165,5.177h0.217
				c1.199-3.542,4.087-5.776,7.302-5.776c0.545,0,0.926,0.054,1.362,0.163v4.523c-0.49-0.109-0.98-0.163-1.635-0.163
				c-3.378,0-5.776,2.562-6.43,6.158c-0.109,0.654-0.219,1.417-0.219,2.233v14.06h-4.741V1566.289z"/>
			<path style="fill:#231F20;" d="M869.867,1572.12c0.109,6.485,4.251,9.155,9.047,9.155c3.432,0,5.504-0.6,7.302-1.362l0.817,3.434
				c-1.689,0.763-4.577,1.635-8.774,1.635c-8.119,0-12.969-5.342-12.969-13.297c0-7.957,4.687-14.224,12.37-14.224
				c8.61,0,10.899,7.575,10.899,12.425c0,0.982-0.109,1.745-0.163,2.235H869.867z M883.927,1568.687
				c0.054-3.052-1.254-7.792-6.649-7.792c-4.85,0-6.975,4.468-7.357,7.792H883.927z"/>
			<path style="fill:#231F20;" d="M894.495,1565.199c0-2.725-0.054-4.959-0.217-7.139h4.195l0.219,4.251h0.163
				c1.472-2.506,3.924-4.85,8.284-4.85c3.596,0,6.321,2.179,7.466,5.286h0.109c0.817-1.472,1.853-2.615,2.942-3.434
				c1.58-1.199,3.324-1.853,5.83-1.853c3.488,0,8.666,2.289,8.666,11.445v15.531h-4.687v-14.931c0-5.069-1.854-8.12-5.722-8.12
				c-2.725,0-4.85,2.016-5.667,4.36c-0.219,0.654-0.382,1.526-0.382,2.398v16.294h-4.687v-15.803c0-4.196-1.853-7.248-5.504-7.248
				c-2.997,0-5.177,2.398-5.94,4.796c-0.273,0.708-0.382,1.526-0.382,2.343v15.913h-4.687V1565.199z"/>
			<path style="fill:#231F20;" d="M956.83,1550.649c0.055,1.635-1.144,2.943-3.052,2.943c-1.689,0-2.888-1.308-2.888-2.943
				c0-1.689,1.254-2.997,2.997-2.997C955.686,1547.651,956.83,1548.959,956.83,1550.649z M951.489,1584.436v-26.376h4.796v26.376
				H951.489z"/>
			<path style="fill:#231F20;" d="M964.24,1566.671c0-3.378-0.108-6.103-0.217-8.611h4.305l0.219,4.523h0.108
				c1.962-3.215,5.069-5.123,9.374-5.123c6.376,0,11.172,5.396,11.172,13.407c0,9.482-5.776,14.168-11.989,14.168
				c-3.488,0-6.539-1.526-8.12-4.141h-0.108v14.332h-4.742V1566.671z M968.982,1573.7c0,0.709,0.108,1.362,0.218,1.962
				c0.872,3.324,3.76,5.613,7.193,5.613c5.069,0,8.011-4.141,8.011-10.19c0-5.286-2.779-9.809-7.848-9.809
				c-3.269,0-6.321,2.344-7.247,5.94c-0.163,0.6-0.327,1.308-0.327,1.962V1573.7z"/>
			<path style="fill:#231F20;" d="M994.59,1579.532c1.416,0.926,3.924,1.906,6.322,1.906c3.488,0,5.122-1.743,5.122-3.924
				c0-2.289-1.362-3.542-4.904-4.85c-4.741-1.689-6.975-4.305-6.975-7.466c0-4.251,3.434-7.738,9.101-7.738
				c2.671,0,5.013,0.763,6.485,1.635l-1.199,3.488c-1.036-0.653-2.942-1.526-5.396-1.526c-2.833,0-4.414,1.635-4.414,3.597
				c0,2.179,1.581,3.16,5.013,4.468c4.577,1.745,6.921,4.033,6.921,7.956c0,4.633-3.597,7.903-9.864,7.903
				c-2.888,0-5.559-0.709-7.411-1.799L994.59,1579.532z"/>
			<path style="fill:#231F20;" d="M1038.892,1577.243c0,2.725,0.054,5.122,0.217,7.193h-4.251l-0.273-4.305h-0.108
				c-1.254,2.125-4.033,4.904-8.72,4.904c-4.141,0-9.101-2.289-9.101-11.553v-15.423h4.796v14.604c0,5.013,1.526,8.393,5.886,8.393
				c3.215,0,5.45-2.235,6.321-4.36c0.273-0.709,0.436-1.58,0.436-2.452v-16.185h4.796V1577.243z"/>
			<path style="fill:#231F20;" d="M1046.844,1565.199c0-2.725-0.054-4.959-0.218-7.139h4.195l0.219,4.251h0.163
				c1.472-2.506,3.924-4.85,8.284-4.85c3.596,0,6.321,2.179,7.465,5.286h0.109c0.817-1.472,1.853-2.615,2.942-3.434
				c1.58-1.199,3.324-1.853,5.83-1.853c3.488,0,8.666,2.289,8.666,11.445v15.531h-4.687v-14.931c0-5.069-1.854-8.12-5.722-8.12
				c-2.725,0-4.85,2.016-5.667,4.36c-0.219,0.654-0.382,1.526-0.382,2.398v16.294h-4.687v-15.803c0-4.196-1.853-7.248-5.504-7.248
				c-2.998,0-5.177,2.398-5.94,4.796c-0.273,0.708-0.382,1.526-0.382,2.343v15.913h-4.687V1565.199z"/>
			<path style="fill:#231F20;" d="M1126.619,1545.745v31.88c0,2.344,0.055,5.013,0.219,6.812h-4.306l-0.218-4.577h-0.109
				c-1.471,2.942-4.687,5.177-8.991,5.177c-6.376,0-11.28-5.396-11.28-13.405c-0.055-8.774,5.394-14.17,11.826-14.17
				c4.032,0,6.757,1.908,7.956,4.033h0.109v-15.749H1126.619z M1121.824,1568.796c0-0.6-0.055-1.417-0.219-2.016
				c-0.708-3.053-3.324-5.559-6.92-5.559c-4.959,0-7.902,4.36-7.902,10.19c0,5.34,2.616,9.754,7.793,9.754
				c3.215,0,6.158-2.125,7.029-5.721c0.163-0.655,0.219-1.308,0.219-2.071V1568.796z"/>
			<path style="fill:#231F20;" d="M1158.442,1571.031c0,9.754-6.758,14.005-13.134,14.005c-7.139,0-12.642-5.232-12.642-13.57
				c0-8.828,5.776-14.005,13.078-14.005C1153.319,1557.461,1158.442,1562.964,1158.442,1571.031z M1137.516,1571.302
				c0,5.776,3.324,10.136,8.01,10.136c4.579,0,8.011-4.305,8.011-10.245c0-4.469-2.233-10.136-7.902-10.136
				C1139.968,1561.058,1137.516,1566.289,1137.516,1571.302z"/>
			<path style="fill:#231F20;" d="M1164.486,1545.745h4.796v38.691h-4.796V1545.745z"/>
			<path style="fill:#231F20;" d="M1201.214,1571.031c0,9.754-6.758,14.005-13.134,14.005c-7.139,0-12.642-5.232-12.642-13.57
				c0-8.828,5.776-14.005,13.079-14.005C1196.092,1557.461,1201.214,1562.964,1201.214,1571.031z M1180.288,1571.302
				c0,5.776,3.324,10.136,8.01,10.136c4.578,0,8.011-4.305,8.011-10.245c0-4.469-2.234-10.136-7.902-10.136
				C1182.74,1561.058,1180.288,1566.289,1180.288,1571.302z"/>
			<path style="fill:#231F20;" d="M1207.26,1566.289c0-3.106-0.054-5.776-0.217-8.229h4.195l0.165,5.177h0.217
				c1.199-3.542,4.087-5.776,7.302-5.776c0.545,0,0.926,0.054,1.362,0.163v4.523c-0.49-0.109-0.98-0.163-1.635-0.163
				c-3.378,0-5.776,2.562-6.43,6.158c-0.109,0.654-0.219,1.417-0.219,2.233v14.06h-4.741V1566.289z"/>
			<path style="fill:#231F20;" d="M1235.975,1579.532c1.417,0.926,3.924,1.906,6.322,1.906c3.488,0,5.122-1.743,5.122-3.924
				c0-2.289-1.362-3.542-4.904-4.85c-4.741-1.689-6.975-4.305-6.975-7.466c0-4.251,3.434-7.738,9.101-7.738
				c2.671,0,5.013,0.763,6.485,1.635l-1.199,3.488c-1.036-0.653-2.942-1.526-5.396-1.526c-2.833,0-4.414,1.635-4.414,3.597
				c0,2.179,1.581,3.16,5.014,4.468c4.577,1.745,6.921,4.033,6.921,7.956c0,4.633-3.597,7.903-9.864,7.903
				c-2.888,0-5.559-0.709-7.411-1.799L1235.975,1579.532z"/>
			<path style="fill:#231F20;" d="M1263.547,1550.649c0.055,1.635-1.144,2.943-3.052,2.943c-1.689,0-2.888-1.308-2.888-2.943
				c0-1.689,1.254-2.997,2.998-2.997C1262.403,1547.651,1263.547,1548.959,1263.547,1550.649z M1258.207,1584.436v-26.376h4.796
				v26.376H1258.207z"/>
			<path style="fill:#231F20;" d="M1276.733,1550.485v7.575h6.867v3.651h-6.867v14.224c0,3.269,0.926,5.123,3.597,5.123
				c1.253,0,2.179-0.163,2.779-0.327l0.219,3.596c-0.926,0.382-2.398,0.655-4.251,0.655c-2.235,0-4.033-0.709-5.177-2.017
				c-1.362-1.417-1.854-3.76-1.854-6.866v-14.387h-4.087v-3.651h4.087v-6.322L1276.733,1550.485z"/>
			<path style="fill:#231F20;" d="M1315.149,1584.436l-0.382-3.324h-0.163c-1.472,2.071-4.305,3.924-8.065,3.924
				c-5.34,0-8.065-3.76-8.065-7.575c0-6.376,5.667-9.863,15.857-9.81v-0.544c0-2.181-0.6-6.104-5.994-6.104
				c-2.453,0-5.014,0.764-6.867,1.962l-1.09-3.16c2.181-1.418,5.34-2.344,8.665-2.344c8.065,0,10.027,5.504,10.027,10.79v9.864
				c0,2.289,0.109,4.523,0.436,6.322H1315.149z M1314.44,1570.975c-5.232-0.108-11.172,0.818-11.172,5.94
				c0,3.107,2.071,4.579,4.523,4.579c3.434,0,5.613-2.181,6.376-4.415c0.163-0.49,0.273-1.034,0.273-1.526V1570.975z"/>
			<path style="fill:#231F20;" d="M1326.807,1565.199c0-2.725-0.054-4.959-0.218-7.139h4.195l0.219,4.251h0.164
				c1.472-2.506,3.924-4.85,8.284-4.85c3.596,0,6.32,2.179,7.465,5.286h0.109c0.817-1.472,1.853-2.615,2.942-3.434
				c1.58-1.199,3.324-1.853,5.83-1.853c3.488,0,8.666,2.289,8.666,11.445v15.531h-4.687v-14.931c0-5.069-1.854-8.12-5.722-8.12
				c-2.725,0-4.85,2.016-5.667,4.36c-0.219,0.654-0.382,1.526-0.382,2.398v16.294h-4.687v-15.803c0-4.196-1.853-7.248-5.504-7.248
				c-2.998,0-5.177,2.398-5.94,4.796c-0.273,0.708-0.382,1.526-0.382,2.343v15.913h-4.687V1565.199z"/>
			<path style="fill:#231F20;" d="M1374.921,1572.12c0.109,6.485,4.251,9.155,9.047,9.155c3.432,0,5.504-0.6,7.302-1.362
				l0.817,3.434c-1.689,0.763-4.578,1.635-8.774,1.635c-8.119,0-12.969-5.342-12.969-13.297c0-7.957,4.687-14.224,12.37-14.224
				c8.61,0,10.899,7.575,10.899,12.425c0,0.982-0.109,1.745-0.163,2.235H1374.921z M1388.981,1568.687
				c0.054-3.052-1.254-7.792-6.649-7.792c-4.85,0-6.975,4.468-7.357,7.792H1388.981z"/>
			<path style="fill:#231F20;" d="M1405.327,1550.485v7.575h6.867v3.651h-6.867v14.224c0,3.269,0.926,5.123,3.597,5.123
				c1.253,0,2.18-0.163,2.779-0.327l0.219,3.596c-0.926,0.382-2.398,0.655-4.25,0.655c-2.235,0-4.033-0.709-5.177-2.017
				c-1.362-1.417-1.854-3.76-1.854-6.866v-14.387h-4.087v-3.651h4.087v-6.322L1405.327,1550.485z"/>
			<path style="fill:#231F20;" d="M1414.317,1591.139c1.199-3.215,2.67-9.045,3.269-13.024l5.342-0.544
				c-1.254,4.631-3.652,10.68-5.178,13.242L1414.317,1591.139z"/>
			<path style="fill:#231F20;" d="M1459.054,1583.456c-1.253,0.654-4.032,1.526-7.575,1.526c-7.956,0-13.133-5.396-13.133-13.461
				c0-8.12,5.558-14.006,14.168-14.006c2.834,0,5.34,0.709,6.649,1.362l-1.09,3.706c-1.145-0.653-2.943-1.253-5.559-1.253
				c-6.049,0-9.318,4.468-9.318,9.972c0,6.104,3.924,9.864,9.155,9.864c2.725,0,4.523-0.708,5.886-1.307L1459.054,1583.456z"/>
			<path style="fill:#231F20;" d="M1488.206,1571.031c0,9.754-6.758,14.005-13.134,14.005c-7.139,0-12.643-5.232-12.643-13.57
				c0-8.828,5.776-14.005,13.079-14.005C1483.083,1557.461,1488.206,1562.964,1488.206,1571.031z M1467.28,1571.302
				c0,5.776,3.324,10.136,8.01,10.136c4.579,0,8.011-4.305,8.011-10.245c0-4.469-2.234-10.136-7.902-10.136
				C1469.732,1561.058,1467.28,1566.289,1467.28,1571.302z"/>
			<path style="fill:#231F20;" d="M1494.251,1565.199c0-2.725-0.054-4.959-0.217-7.139h4.251l0.273,4.36h0.108
				c1.308-2.507,4.36-4.959,8.72-4.959c3.651,0,9.318,2.179,9.318,11.226v15.749h-4.795v-15.204c0-4.251-1.581-7.794-6.104-7.794
				c-3.16,0-5.613,2.235-6.43,4.906c-0.217,0.599-0.327,1.416-0.327,2.233v15.859h-4.796V1565.199z"/>
			<path style="fill:#231F20;" d="M1523.838,1579.532c1.416,0.926,3.924,1.906,6.322,1.906c3.488,0,5.122-1.743,5.122-3.924
				c0-2.289-1.362-3.542-4.904-4.85c-4.741-1.689-6.975-4.305-6.975-7.466c0-4.251,3.434-7.738,9.101-7.738
				c2.671,0,5.013,0.763,6.485,1.635l-1.199,3.488c-1.036-0.653-2.942-1.526-5.396-1.526c-2.833,0-4.414,1.635-4.414,3.597
				c0,2.179,1.581,3.16,5.013,4.468c4.578,1.745,6.922,4.033,6.922,7.956c0,4.633-3.597,7.903-9.864,7.903
				c-2.888,0-5.559-0.709-7.411-1.799L1523.838,1579.532z"/>
			<path style="fill:#231F20;" d="M1548.741,1572.12c0.109,6.485,4.251,9.155,9.047,9.155c3.432,0,5.504-0.6,7.302-1.362
				l0.817,3.434c-1.689,0.763-4.577,1.635-8.774,1.635c-8.119,0-12.969-5.342-12.969-13.297c0-7.957,4.687-14.224,12.37-14.224
				c8.611,0,10.899,7.575,10.899,12.425c0,0.982-0.109,1.745-0.163,2.235H1548.741z M1562.801,1568.687
				c0.054-3.052-1.254-7.792-6.649-7.792c-4.85,0-6.975,4.468-7.358,7.792H1562.801z"/>
			<path style="fill:#231F20;" d="M1592.17,1583.456c-1.253,0.654-4.032,1.526-7.575,1.526c-7.956,0-13.133-5.396-13.133-13.461
				c0-8.12,5.558-14.006,14.168-14.006c2.834,0,5.34,0.709,6.649,1.362l-1.09,3.706c-1.145-0.653-2.944-1.253-5.559-1.253
				c-6.049,0-9.318,4.468-9.318,9.972c0,6.104,3.924,9.864,9.155,9.864c2.725,0,4.523-0.708,5.886-1.307L1592.17,1583.456z"/>
			<path style="fill:#231F20;" d="M1604.264,1550.485v7.575h6.867v3.651h-6.867v14.224c0,3.269,0.926,5.123,3.597,5.123
				c1.253,0,2.179-0.163,2.779-0.327l0.219,3.596c-0.926,0.382-2.398,0.655-4.251,0.655c-2.235,0-4.033-0.709-5.177-2.017
				c-1.362-1.417-1.854-3.76-1.854-6.866v-14.387h-4.087v-3.651h4.087v-6.322L1604.264,1550.485z"/>
			<path style="fill:#231F20;" d="M1618.867,1572.12c0.109,6.485,4.251,9.155,9.045,9.155c3.434,0,5.505-0.6,7.303-1.362
				l0.817,3.434c-1.689,0.763-4.577,1.635-8.774,1.635c-8.119,0-12.969-5.342-12.969-13.297c0-7.957,4.687-14.224,12.37-14.224
				c8.611,0,10.899,7.575,10.899,12.425c0,0.982-0.109,1.745-0.163,2.235H1618.867z M1632.928,1568.687
				c0.054-3.052-1.254-7.792-6.649-7.792c-4.85,0-6.975,4.468-7.357,7.792H1632.928z"/>
			<path style="fill:#231F20;" d="M1649.271,1550.485v7.575h6.867v3.651h-6.867v14.224c0,3.269,0.926,5.123,3.597,5.123
				c1.253,0,2.179-0.163,2.779-0.327l0.219,3.596c-0.926,0.382-2.398,0.655-4.251,0.655c-2.234,0-4.033-0.709-5.177-2.017
				c-1.362-1.417-1.854-3.76-1.854-6.866v-14.387h-4.087v-3.651h4.087v-6.322L1649.271,1550.485z"/>
			<path style="fill:#231F20;" d="M1683.602,1577.243c0,2.725,0.054,5.122,0.217,7.193h-4.251l-0.273-4.305h-0.108
				c-1.254,2.125-4.033,4.904-8.72,4.904c-4.141,0-9.101-2.289-9.101-11.553v-15.423h4.796v14.604c0,5.013,1.526,8.393,5.886,8.393
				c3.215,0,5.45-2.235,6.321-4.36c0.273-0.709,0.436-1.58,0.436-2.452v-16.185h4.796V1577.243z"/>
			<path style="fill:#231F20;" d="M1691.554,1566.289c0-3.106-0.054-5.776-0.218-8.229h4.195l0.165,5.177h0.218
				c1.199-3.542,4.087-5.776,7.302-5.776c0.546,0,0.926,0.054,1.362,0.163v4.523c-0.49-0.109-0.98-0.163-1.635-0.163
				c-3.379,0-5.776,2.562-6.43,6.158c-0.109,0.654-0.218,1.417-0.218,2.233v14.06h-4.742V1566.289z"/>
			<path style="fill:#231F20;" d="M1735.529,1584.436l-0.382-3.324h-0.163c-1.472,2.071-4.305,3.924-8.065,3.924
				c-5.34,0-8.065-3.76-8.065-7.575c0-6.376,5.667-9.863,15.858-9.81v-0.544c0-2.181-0.599-6.104-5.994-6.104
				c-2.453,0-5.013,0.764-6.867,1.962l-1.09-3.16c2.18-1.418,5.34-2.344,8.664-2.344c8.065,0,10.027,5.504,10.027,10.79v9.864
				c0,2.289,0.109,4.523,0.436,6.322H1735.529z M1734.82,1570.975c-5.232-0.108-11.172,0.818-11.172,5.94
				c0,3.107,2.071,4.579,4.523,4.579c3.434,0,5.613-2.181,6.376-4.415c0.163-0.49,0.273-1.034,0.273-1.526V1570.975z"/>
			<path style="fill:#231F20;" d="M1769.965,1545.745v31.88c0,2.344,0.055,5.013,0.219,6.812h-4.306l-0.218-4.577h-0.109
				c-1.47,2.942-4.687,5.177-8.991,5.177c-6.376,0-11.28-5.396-11.28-13.405c-0.055-8.774,5.394-14.17,11.826-14.17
				c4.032,0,6.757,1.908,7.956,4.033h0.109v-15.749H1769.965z M1765.17,1568.796c0-0.6-0.055-1.417-0.219-2.016
				c-0.708-3.053-3.324-5.559-6.92-5.559c-4.959,0-7.902,4.36-7.902,10.19c0,5.34,2.615,9.754,7.792,9.754
				c3.215,0,6.158-2.125,7.03-5.721c0.163-0.655,0.219-1.308,0.219-2.071V1568.796z"/>
			<path style="fill:#231F20;" d="M1783.259,1550.649c0.055,1.635-1.144,2.943-3.052,2.943c-1.689,0-2.888-1.308-2.888-2.943
				c0-1.689,1.254-2.997,2.997-2.997C1782.115,1547.651,1783.259,1548.959,1783.259,1550.649z M1777.918,1584.436v-26.376h4.796
				v26.376H1777.918z"/>
			<path style="fill:#231F20;" d="M1790.669,1566.671c0-3.378-0.108-6.103-0.217-8.611h4.305l0.219,4.523h0.108
				c1.962-3.215,5.069-5.123,9.373-5.123c6.376,0,11.172,5.396,11.172,13.407c0,9.482-5.776,14.168-11.989,14.168
				c-3.488,0-6.539-1.526-8.12-4.141h-0.108v14.332h-4.742V1566.671z M1795.411,1573.7c0,0.709,0.108,1.362,0.217,1.962
				c0.872,3.324,3.76,5.613,7.193,5.613c5.069,0,8.011-4.141,8.011-10.19c0-5.286-2.779-9.809-7.848-9.809
				c-3.269,0-6.321,2.344-7.247,5.94c-0.163,0.6-0.327,1.308-0.327,1.962V1573.7z"/>
			<path style="fill:#231F20;" d="M1827.013,1550.649c0.055,1.635-1.144,2.943-3.052,2.943c-1.689,0-2.888-1.308-2.888-2.943
				c0-1.689,1.254-2.997,2.998-2.997C1825.869,1547.651,1827.013,1548.959,1827.013,1550.649z M1821.672,1584.436v-26.376h4.796
				v26.376H1821.672z"/>
			<path style="fill:#231F20;" d="M1833.769,1579.532c1.417,0.926,3.924,1.906,6.322,1.906c3.488,0,5.122-1.743,5.122-3.924
				c0-2.289-1.362-3.542-4.904-4.85c-4.741-1.689-6.975-4.305-6.975-7.466c0-4.251,3.434-7.738,9.101-7.738
				c2.671,0,5.014,0.763,6.485,1.635l-1.199,3.488c-1.036-0.653-2.942-1.526-5.396-1.526c-2.833,0-4.414,1.635-4.414,3.597
				c0,2.179,1.581,3.16,5.014,4.468c4.577,1.745,6.921,4.033,6.921,7.956c0,4.633-3.597,7.903-9.864,7.903
				c-2.888,0-5.559-0.709-7.411-1.799L1833.769,1579.532z"/>
			<path style="fill:#231F20;" d="M1874.801,1583.456c-1.253,0.654-4.032,1.526-7.575,1.526c-7.956,0-13.133-5.396-13.133-13.461
				c0-8.12,5.558-14.006,14.168-14.006c2.834,0,5.34,0.709,6.649,1.362l-1.09,3.706c-1.145-0.653-2.943-1.253-5.559-1.253
				c-6.049,0-9.318,4.468-9.318,9.972c0,6.104,3.924,9.864,9.155,9.864c2.725,0,4.523-0.708,5.886-1.307L1874.801,1583.456z"/>
			<path style="fill:#231F20;" d="M1885.752,1550.649c0.055,1.635-1.144,2.943-3.052,2.943c-1.689,0-2.888-1.308-2.888-2.943
				c0-1.689,1.254-2.997,2.997-2.997C1884.608,1547.651,1885.752,1548.959,1885.752,1550.649z M1880.412,1584.436v-26.376h4.796
				v26.376H1880.412z"/>
			<path style="fill:#231F20;" d="M1893.161,1565.199c0-2.725-0.054-4.959-0.218-7.139h4.25l0.273,4.36h0.108
				c1.308-2.507,4.36-4.959,8.72-4.959c3.651,0,9.318,2.179,9.318,11.226v15.749h-4.795v-15.204c0-4.251-1.581-7.794-6.104-7.794
				c-3.16,0-5.613,2.235-6.43,4.906c-0.217,0.599-0.327,1.416-0.327,2.233v15.859h-4.796V1565.199z"/>
			<path style="fill:#231F20;" d="M1946.128,1558.06c-0.109,1.908-0.218,4.033-0.218,7.248v15.313c0,6.049-1.199,9.754-3.76,12.043
				c-2.561,2.398-6.266,3.161-9.591,3.161c-3.161,0-6.649-0.763-8.774-2.179l1.199-3.651c1.743,1.09,4.468,2.07,7.738,2.07
				c4.904,0,8.501-2.562,8.501-9.209v-2.943h-0.109c-1.472,2.452-4.305,4.414-8.392,4.414c-6.539,0-11.226-5.558-11.226-12.861
				c0-8.936,5.83-14.005,11.879-14.005c4.577,0,7.085,2.398,8.229,4.577h0.109l0.217-3.978H1946.128z M1941.168,1568.469
				c0-0.818-0.054-1.526-0.271-2.181c-0.872-2.779-3.216-5.068-6.704-5.068c-4.577,0-7.846,3.869-7.846,9.973
				c0,5.177,2.615,9.482,7.792,9.482c2.942,0,5.613-1.853,6.649-4.904c0.273-0.818,0.381-1.744,0.381-2.561V1568.469z"/>
			<path style="fill:#231F20;" d="M1968.083,1572.12c0.109,6.485,4.251,9.155,9.047,9.155c3.432,0,5.504-0.6,7.302-1.362
				l0.817,3.434c-1.689,0.763-4.577,1.635-8.774,1.635c-8.119,0-12.969-5.342-12.969-13.297c0-7.957,4.687-14.224,12.37-14.224
				c8.61,0,10.899,7.575,10.899,12.425c0,0.982-0.109,1.745-0.163,2.235H1968.083z M1982.144,1568.687
				c0.054-3.052-1.254-7.792-6.649-7.792c-4.85,0-6.975,4.468-7.357,7.792H1982.144z"/>
			<path style="fill:#231F20;" d="M1992.712,1545.745h4.796v38.691h-4.796V1545.745z"/>
			<path style="fill:#231F20;" d="M2010.911,1550.649c0.055,1.635-1.144,2.943-3.052,2.943c-1.689,0-2.888-1.308-2.888-2.943
				c0-1.689,1.254-2.997,2.997-2.997C2009.767,1547.651,2010.911,1548.959,2010.911,1550.649z M2005.571,1584.436v-26.376h4.796
				v26.376H2005.571z"/>
			<path style="fill:#231F20;" d="M2024.098,1550.485v7.575h6.867v3.651h-6.867v14.224c0,3.269,0.926,5.123,3.597,5.123
				c1.253,0,2.179-0.163,2.779-0.327l0.219,3.596c-0.926,0.382-2.398,0.655-4.251,0.655c-2.235,0-4.033-0.709-5.177-2.017
				c-1.362-1.417-1.854-3.76-1.854-6.866v-14.387h-4.087v-3.651h4.087v-6.322L2024.098,1550.485z"/>
			<path style="fill:#231F20;" d="M2033.088,1591.139c1.199-3.215,2.67-9.045,3.269-13.024l5.341-0.544
				c-1.254,4.631-3.652,10.68-5.178,13.242L2033.088,1591.139z"/>
			<path style="fill:#231F20;" d="M2058.369,1579.532c1.417,0.926,3.924,1.906,6.322,1.906c3.488,0,5.122-1.743,5.122-3.924
				c0-2.289-1.362-3.542-4.904-4.85c-4.741-1.689-6.975-4.305-6.975-7.466c0-4.251,3.434-7.738,9.101-7.738
				c2.671,0,5.013,0.763,6.485,1.635l-1.199,3.488c-1.036-0.653-2.942-1.526-5.396-1.526c-2.833,0-4.414,1.635-4.414,3.597
				c0,2.179,1.581,3.16,5.013,4.468c4.577,1.745,6.921,4.033,6.921,7.956c0,4.633-3.597,7.903-9.864,7.903
				c-2.888,0-5.559-0.709-7.411-1.799L2058.369,1579.532z"/>
			<path style="fill:#231F20;" d="M2083.272,1572.12c0.109,6.485,4.25,9.155,9.047,9.155c3.432,0,5.504-0.6,7.302-1.362l0.817,3.434
				c-1.689,0.763-4.577,1.635-8.774,1.635c-8.119,0-12.969-5.342-12.969-13.297c0-7.957,4.687-14.224,12.37-14.224
				c8.61,0,10.899,7.575,10.899,12.425c0,0.982-0.109,1.745-0.163,2.235H2083.272z M2097.332,1568.687
				c0.054-3.052-1.254-7.792-6.649-7.792c-4.85,0-6.975,4.468-7.357,7.792H2097.332z"/>
			<path style="fill:#231F20;" d="M2130.679,1545.745v31.88c0,2.344,0.055,5.013,0.219,6.812h-4.306l-0.218-4.577h-0.109
				c-1.471,2.942-4.687,5.177-8.991,5.177c-6.376,0-11.28-5.396-11.28-13.405c-0.055-8.774,5.394-14.17,11.825-14.17
				c4.032,0,6.757,1.908,7.956,4.033h0.109v-15.749H2130.679z M2125.884,1568.796c0-0.6-0.055-1.417-0.219-2.016
				c-0.708-3.053-3.324-5.559-6.92-5.559c-4.959,0-7.902,4.36-7.902,10.19c0,5.34,2.615,9.754,7.792,9.754
				c3.215,0,6.158-2.125,7.03-5.721c0.164-0.655,0.219-1.308,0.219-2.071V1568.796z"/>
			<path style="fill:#231F20;" d="M2172.962,1545.745v31.88c0,2.344,0.055,5.013,0.219,6.812h-4.305l-0.219-4.577h-0.109
				c-1.47,2.942-4.687,5.177-8.991,5.177c-6.376,0-11.28-5.396-11.28-13.405c-0.055-8.774,5.395-14.17,11.826-14.17
				c4.032,0,6.757,1.908,7.956,4.033h0.109v-15.749H2172.962z M2168.167,1568.796c0-0.6-0.055-1.417-0.219-2.016
				c-0.708-3.053-3.324-5.559-6.92-5.559c-4.959,0-7.902,4.36-7.902,10.19c0,5.34,2.615,9.754,7.792,9.754
				c3.215,0,6.158-2.125,7.029-5.721c0.164-0.655,0.219-1.308,0.219-2.071V1568.796z"/>
			<path style="fill:#231F20;" d="M2204.784,1571.031c0,9.754-6.758,14.005-13.134,14.005c-7.139,0-12.642-5.232-12.642-13.57
				c0-8.828,5.776-14.005,13.079-14.005C2199.661,1557.461,2204.784,1562.964,2204.784,1571.031z M2183.858,1571.302
				c0,5.776,3.324,10.136,8.01,10.136c4.579,0,8.011-4.305,8.011-10.245c0-4.469-2.233-10.136-7.902-10.136
				C2186.31,1561.058,2183.858,1566.289,2183.858,1571.302z"/>
		</g>
		<g>
			<path style="fill:#231F20;" d="M813.471,1637.506c0.109,6.485,4.251,9.155,9.046,9.155c3.433,0,5.504-0.599,7.302-1.363
				l0.818,3.434c-1.689,0.763-4.577,1.635-8.774,1.635c-8.12,0-12.97-5.342-12.97-13.297c0-7.957,4.687-14.224,12.37-14.224
				c8.61,0,10.899,7.575,10.899,12.425c0,0.982-0.109,1.745-0.163,2.235H813.471z M827.53,1634.073
				c0.055-3.052-1.253-7.792-6.649-7.792c-4.85,0-6.975,4.468-7.357,7.792H827.53z"/>
			<path style="fill:#231F20;" d="M843.44,1616.035c0.055,1.635-1.144,2.943-3.052,2.943c-1.69,0-2.888-1.308-2.888-2.943
				c0-1.689,1.253-2.997,2.997-2.997C842.296,1613.038,843.44,1614.346,843.44,1616.035z M838.099,1649.822v-26.376h4.796v26.376
				H838.099z"/>
			<path style="fill:#231F20;" d="M872.92,1642.629c0,2.725,0.055,5.122,0.219,7.193h-4.251l-0.273-4.304h-0.109
				c-1.253,2.125-4.033,4.904-8.719,4.904c-4.141,0-9.101-2.289-9.101-11.553v-15.422h4.796v14.604c0,5.014,1.526,8.393,5.885,8.393
				c3.215,0,5.45-2.235,6.322-4.36c0.273-0.709,0.436-1.58,0.436-2.452v-16.185h4.795V1642.629z"/>
			<path style="fill:#231F20;" d="M880.219,1644.918c1.417,0.926,3.924,1.906,6.322,1.906c3.488,0,5.122-1.743,5.122-3.924
				c0-2.289-1.362-3.542-4.904-4.85c-4.741-1.689-6.976-4.305-6.976-7.466c0-4.25,3.434-7.738,9.101-7.738
				c2.671,0,5.014,0.763,6.485,1.635l-1.199,3.488c-1.036-0.654-2.942-1.526-5.396-1.526c-2.833,0-4.414,1.635-4.414,3.597
				c0,2.18,1.581,3.16,5.014,4.468c4.577,1.744,6.921,4.033,6.921,7.956c0,4.633-3.597,7.903-9.864,7.903
				c-2.888,0-5.559-0.709-7.411-1.798L880.219,1644.918z"/>
			<path style="fill:#231F20;" d="M902.45,1630.585c0-2.725-0.054-4.959-0.217-7.139h4.195l0.219,4.25h0.164
				c1.472-2.506,3.924-4.85,8.284-4.85c3.596,0,6.32,2.179,7.465,5.286h0.11c0.817-1.472,1.852-2.615,2.942-3.434
				c1.58-1.199,3.324-1.853,5.831-1.853c3.488,0,8.666,2.289,8.666,11.445v15.531h-4.687v-14.931c0-5.069-1.854-8.12-5.722-8.12
				c-2.725,0-4.85,2.016-5.667,4.36c-0.219,0.654-0.382,1.526-0.382,2.398v16.293h-4.687v-15.803c0-4.196-1.853-7.248-5.504-7.248
				c-2.997,0-5.177,2.398-5.94,4.796c-0.273,0.708-0.382,1.526-0.382,2.343v15.913h-4.687V1630.585z"/>
			<path style="fill:#231F20;" d="M971.764,1636.417c0,9.754-6.758,14.005-13.134,14.005c-7.139,0-12.642-5.232-12.642-13.57
				c0-8.828,5.776-14.005,13.079-14.005C966.642,1622.847,971.764,1628.35,971.764,1636.417z M950.838,1636.688
				c0,5.776,3.324,10.136,8.01,10.136c4.579,0,8.011-4.304,8.011-10.244c0-4.469-2.233-10.136-7.902-10.136
				C953.29,1626.444,950.838,1631.675,950.838,1636.688z"/>
			<path style="fill:#231F20;" d="M1000.588,1611.131v31.879c0,2.344,0.055,5.014,0.219,6.812h-4.305l-0.219-4.577h-0.109
				c-1.47,2.942-4.687,5.177-8.991,5.177c-6.376,0-11.28-5.396-11.28-13.405c-0.055-8.774,5.394-14.17,11.826-14.17
				c4.032,0,6.757,1.908,7.956,4.033h0.109v-15.749H1000.588z M995.793,1634.182c0-0.599-0.055-1.416-0.219-2.016
				c-0.708-3.053-3.324-5.559-6.92-5.559c-4.959,0-7.902,4.36-7.902,10.19c0,5.34,2.615,9.754,7.792,9.754
				c3.215,0,6.158-2.125,7.03-5.721c0.163-0.655,0.219-1.308,0.219-2.071V1634.182z"/>
			<path style="fill:#231F20;" d="M1025.869,1615.872v7.574h6.867v3.651h-6.867v14.224c0,3.27,0.926,5.123,3.597,5.123
				c1.253,0,2.179-0.163,2.779-0.327l0.219,3.596c-0.926,0.382-2.398,0.655-4.251,0.655c-2.234,0-4.033-0.709-5.177-2.017
				c-1.362-1.416-1.854-3.759-1.854-6.866v-14.387h-4.087v-3.651h4.087v-6.321L1025.869,1615.872z"/>
			<path style="fill:#231F20;" d="M1040.472,1637.506c0.109,6.485,4.251,9.155,9.047,9.155c3.432,0,5.504-0.599,7.302-1.363
				l0.817,3.434c-1.689,0.763-4.577,1.635-8.774,1.635c-8.119,0-12.969-5.342-12.969-13.297c0-7.957,4.687-14.224,12.37-14.224
				c8.611,0,10.899,7.575,10.899,12.425c0,0.982-0.109,1.745-0.163,2.235H1040.472z M1054.532,1634.073
				c0.054-3.052-1.254-7.792-6.648-7.792c-4.85,0-6.975,4.468-7.357,7.792H1054.532z"/>
			<path style="fill:#231F20;" d="M1065.099,1630.585c0-2.725-0.054-4.959-0.217-7.139h4.195l0.219,4.25h0.163
				c1.472-2.506,3.924-4.85,8.284-4.85c3.596,0,6.321,2.179,7.466,5.286h0.109c0.817-1.472,1.853-2.615,2.942-3.434
				c1.58-1.199,3.324-1.853,5.83-1.853c3.488,0,8.666,2.289,8.666,11.445v15.531h-4.687v-14.931c0-5.069-1.854-8.12-5.722-8.12
				c-2.725,0-4.85,2.016-5.667,4.36c-0.219,0.654-0.382,1.526-0.382,2.398v16.293h-4.687v-15.803c0-4.196-1.853-7.248-5.504-7.248
				c-2.998,0-5.177,2.398-5.94,4.796c-0.273,0.708-0.382,1.526-0.382,2.343v15.913h-4.687V1630.585z"/>
			<path style="fill:#231F20;" d="M1110.544,1632.057c0-3.378-0.108-6.103-0.217-8.61h4.305l0.219,4.523h0.108
				c1.962-3.215,5.069-5.123,9.374-5.123c6.376,0,11.172,5.396,11.172,13.406c0,9.482-5.776,14.168-11.989,14.168
				c-3.488,0-6.539-1.526-8.12-4.141h-0.109v14.332h-4.741V1632.057z M1115.285,1639.086c0,0.709,0.109,1.362,0.219,1.962
				c0.872,3.324,3.76,5.613,7.193,5.613c5.069,0,8.011-4.141,8.011-10.19c0-5.286-2.779-9.81-7.848-9.81
				c-3.269,0-6.321,2.344-7.247,5.94c-0.163,0.599-0.328,1.308-0.328,1.962V1639.086z"/>
			<path style="fill:#231F20;" d="M1165.417,1636.417c0,9.754-6.758,14.005-13.134,14.005c-7.139,0-12.642-5.232-12.642-13.57
				c0-8.828,5.776-14.005,13.079-14.005C1160.295,1622.847,1165.417,1628.35,1165.417,1636.417z M1144.491,1636.688
				c0,5.776,3.324,10.136,8.01,10.136c4.579,0,8.011-4.304,8.011-10.244c0-4.469-2.233-10.136-7.902-10.136
				C1146.943,1626.444,1144.491,1631.675,1144.491,1636.688z"/>
			<path style="fill:#231F20;" d="M1171.461,1631.675c0-3.106-0.054-5.776-0.217-8.228h4.195l0.165,5.177h0.218
				c1.199-3.542,4.087-5.776,7.302-5.776c0.545,0,0.926,0.054,1.362,0.163v4.523c-0.49-0.109-0.98-0.163-1.635-0.163
				c-3.378,0-5.776,2.561-6.43,6.158c-0.109,0.654-0.217,1.417-0.217,2.233v14.06h-4.742V1631.675z"/>
			<path style="fill:#231F20;" d="M1206.171,1616.035c0.055,1.635-1.144,2.943-3.052,2.943c-1.689,0-2.888-1.308-2.888-2.943
				c0-1.689,1.254-2.997,2.998-2.997C1205.028,1613.038,1206.171,1614.346,1206.171,1616.035z M1200.831,1649.822v-26.376h4.796
				v26.376H1200.831z"/>
			<path style="fill:#231F20;" d="M1213.58,1630.585c0-2.725-0.054-4.959-0.217-7.139h4.251l0.273,4.36h0.108
				c1.308-2.507,4.36-4.959,8.72-4.959c3.651,0,9.318,2.179,9.318,11.226v15.749h-4.795v-15.204c0-4.25-1.581-7.793-6.104-7.793
				c-3.16,0-5.613,2.235-6.43,4.905c-0.218,0.6-0.327,1.417-0.327,2.233v15.859h-4.796V1630.585z"/>
			<path style="fill:#231F20;" d="M1262.623,1648.842c-1.253,0.654-4.032,1.526-7.575,1.526c-7.956,0-13.133-5.396-13.133-13.461
				c0-8.12,5.558-14.006,14.168-14.006c2.834,0,5.34,0.709,6.649,1.362l-1.09,3.706c-1.145-0.654-2.943-1.253-5.559-1.253
				c-6.049,0-9.318,4.468-9.318,9.972c0,6.104,3.924,9.864,9.155,9.864c2.725,0,4.523-0.708,5.886-1.307L1262.623,1648.842z"/>
			<path style="fill:#231F20;" d="M1273.574,1616.035c0.055,1.635-1.144,2.943-3.052,2.943c-1.689,0-2.888-1.308-2.888-2.943
				c0-1.689,1.254-2.997,2.998-2.997C1272.43,1613.038,1273.574,1614.346,1273.574,1616.035z M1268.234,1649.822v-26.376h4.796
				v26.376H1268.234z"/>
			<path style="fill:#231F20;" d="M1303.762,1611.131v31.879c0,2.344,0.055,5.014,0.219,6.812h-4.306l-0.218-4.577h-0.109
				c-1.47,2.942-4.687,5.177-8.991,5.177c-6.376,0-11.28-5.396-11.28-13.405c-0.055-8.774,5.394-14.17,11.825-14.17
				c4.032,0,6.757,1.908,7.956,4.033h0.109v-15.749H1303.762z M1298.967,1634.182c0-0.599-0.055-1.416-0.219-2.016
				c-0.708-3.053-3.324-5.559-6.92-5.559c-4.959,0-7.902,4.36-7.902,10.19c0,5.34,2.615,9.754,7.792,9.754
				c3.215,0,6.159-2.125,7.03-5.721c0.163-0.655,0.219-1.308,0.219-2.071V1634.182z"/>
			<path style="fill:#231F20;" d="M1317.056,1616.035c0.055,1.635-1.144,2.943-3.052,2.943c-1.689,0-2.888-1.308-2.888-2.943
				c0-1.689,1.254-2.997,2.997-2.997C1315.912,1613.038,1317.056,1614.346,1317.056,1616.035z M1311.715,1649.822v-26.376h4.796
				v26.376H1311.715z"/>
			<path style="fill:#231F20;" d="M1347.245,1611.131v31.879c0,2.344,0.055,5.014,0.219,6.812h-4.305l-0.219-4.577h-0.109
				c-1.47,2.942-4.687,5.177-8.991,5.177c-6.376,0-11.28-5.396-11.28-13.405c-0.055-8.774,5.394-14.17,11.825-14.17
				c4.032,0,6.757,1.908,7.956,4.033h0.109v-15.749H1347.245z M1342.45,1634.182c0-0.599-0.055-1.416-0.219-2.016
				c-0.708-3.053-3.324-5.559-6.92-5.559c-4.959,0-7.902,4.36-7.902,10.19c0,5.34,2.615,9.754,7.792,9.754
				c3.215,0,6.158-2.125,7.029-5.721c0.163-0.655,0.219-1.308,0.219-2.071V1634.182z"/>
			<path style="fill:#231F20;" d="M1377.269,1642.629c0,2.725,0.054,5.122,0.217,7.193h-4.251l-0.273-4.304h-0.108
				c-1.254,2.125-4.033,4.904-8.72,4.904c-4.141,0-9.101-2.289-9.101-11.553v-15.422h4.796v14.604c0,5.014,1.526,8.393,5.886,8.393
				c3.215,0,5.45-2.235,6.321-4.36c0.273-0.709,0.436-1.58,0.436-2.452v-16.185h4.796V1642.629z"/>
			<path style="fill:#231F20;" d="M1385.221,1630.585c0-2.725-0.054-4.959-0.217-7.139h4.251l0.273,4.36h0.108
				c1.308-2.507,4.36-4.959,8.72-4.959c3.651,0,9.318,2.179,9.318,11.226v15.749h-4.795v-15.204c0-4.25-1.581-7.793-6.104-7.793
				c-3.16,0-5.613,2.235-6.43,4.905c-0.218,0.6-0.327,1.417-0.327,2.233v15.859h-4.796V1630.585z"/>
			<path style="fill:#231F20;" d="M1421.021,1615.872v7.574h6.867v3.651h-6.867v14.224c0,3.27,0.926,5.123,3.597,5.123
				c1.253,0,2.179-0.163,2.779-0.327l0.219,3.596c-0.926,0.382-2.398,0.655-4.251,0.655c-2.235,0-4.033-0.709-5.177-2.017
				c-1.362-1.416-1.854-3.759-1.854-6.866v-14.387h-4.087v-3.651h4.087v-6.321L1421.021,1615.872z"/>
			<path style="fill:#231F20;" d="M1466.903,1642.629c0,2.725,0.054,5.122,0.217,7.193h-4.25l-0.273-4.304h-0.108
				c-1.254,2.125-4.033,4.904-8.72,4.904c-4.141,0-9.101-2.289-9.101-11.553v-15.422h4.796v14.604c0,5.014,1.526,8.393,5.886,8.393
				c3.215,0,5.45-2.235,6.321-4.36c0.273-0.709,0.436-1.58,0.436-2.452v-16.185h4.796V1642.629z"/>
			<path style="fill:#231F20;" d="M1480.631,1615.872v7.574h6.867v3.651h-6.867v14.224c0,3.27,0.926,5.123,3.597,5.123
				c1.253,0,2.179-0.163,2.779-0.327l0.219,3.596c-0.926,0.382-2.398,0.655-4.251,0.655c-2.234,0-4.033-0.709-5.177-2.017
				c-1.362-1.416-1.854-3.759-1.854-6.866v-14.387h-4.087v-3.651h4.087v-6.321L1480.631,1615.872z"/>
			<path style="fill:#231F20;" d="M1504.442,1611.131h4.796v38.691h-4.796V1611.131z"/>
			<path style="fill:#231F20;" d="M1531.906,1649.822l-0.382-3.324h-0.163c-1.472,2.071-4.305,3.924-8.065,3.924
				c-5.34,0-8.065-3.76-8.065-7.575c0-6.376,5.667-9.864,15.857-9.809v-0.544c0-2.181-0.599-6.104-5.994-6.104
				c-2.453,0-5.014,0.763-6.867,1.962l-1.09-3.16c2.181-1.418,5.34-2.344,8.665-2.344c8.065,0,10.027,5.504,10.027,10.79v9.864
				c0,2.289,0.109,4.523,0.436,6.322H1531.906z M1531.197,1636.361c-5.232-0.108-11.172,0.818-11.172,5.94
				c0,3.107,2.071,4.579,4.523,4.579c3.434,0,5.613-2.181,6.376-4.415c0.163-0.49,0.273-1.034,0.273-1.526V1636.361z"/>
			<path style="fill:#231F20;" d="M1543.347,1649.822c0.109-1.798,0.218-4.468,0.218-6.812v-31.879h4.741v16.566h0.109
				c1.689-2.942,4.741-4.85,8.993-4.85c6.539,0,11.171,5.45,11.117,13.461c0,9.427-5.94,14.114-11.825,14.114
				c-3.815,0-6.866-1.472-8.828-4.959h-0.163l-0.219,4.36H1543.347z M1548.305,1639.25c0,0.599,0.109,1.199,0.219,1.745
				c0.926,3.324,3.705,5.613,7.193,5.613c5.014,0,8.011-4.087,8.011-10.136c0-5.286-2.725-9.81-7.848-9.81
				c-3.269,0-6.321,2.235-7.302,5.886c-0.108,0.545-0.273,1.199-0.273,1.962V1639.25z"/>
			<path style="fill:#231F20;" d="M1598.438,1636.417c0,9.754-6.758,14.005-13.134,14.005c-7.139,0-12.643-5.232-12.643-13.57
				c0-8.828,5.776-14.005,13.079-14.005C1593.315,1622.847,1598.438,1628.35,1598.438,1636.417z M1577.511,1636.688
				c0,5.776,3.324,10.136,8.01,10.136c4.579,0,8.011-4.304,8.011-10.244c0-4.469-2.233-10.136-7.902-10.136
				C1579.964,1626.444,1577.511,1631.675,1577.511,1636.688z"/>
			<path style="fill:#231F20;" d="M1604.482,1631.675c0-3.106-0.054-5.776-0.218-8.228h4.195l0.165,5.177h0.217
				c1.199-3.542,4.087-5.776,7.302-5.776c0.546,0,0.926,0.054,1.362,0.163v4.523c-0.49-0.109-0.98-0.163-1.635-0.163
				c-3.378,0-5.776,2.561-6.43,6.158c-0.109,0.654-0.218,1.417-0.218,2.233v14.06h-4.742V1631.675z"/>
			<path style="fill:#231F20;" d="M1624.426,1637.506c0.109,6.485,4.251,9.155,9.045,9.155c3.434,0,5.505-0.599,7.303-1.363
				l0.817,3.434c-1.689,0.763-4.577,1.635-8.774,1.635c-8.119,0-12.969-5.342-12.969-13.297c0-7.957,4.687-14.224,12.37-14.224
				c8.61,0,10.899,7.575,10.899,12.425c0,0.982-0.109,1.745-0.163,2.235H1624.426z M1638.486,1634.073
				c0.054-3.052-1.254-7.792-6.648-7.792c-4.85,0-6.975,4.468-7.358,7.792H1638.486z"/>
			<path style="fill:#231F20;" d="M1663.276,1637.506c0.109,6.485,4.251,9.155,9.045,9.155c3.434,0,5.505-0.599,7.303-1.363
				l0.817,3.434c-1.689,0.763-4.578,1.635-8.774,1.635c-8.119,0-12.969-5.342-12.969-13.297c0-7.957,4.687-14.224,12.37-14.224
				c8.611,0,10.899,7.575,10.899,12.425c0,0.982-0.109,1.745-0.164,2.235H1663.276z M1677.337,1634.073
				c0.054-3.052-1.254-7.792-6.649-7.792c-4.85,0-6.975,4.468-7.357,7.792H1677.337z"/>
			<path style="fill:#231F20;" d="M1693.68,1615.872v7.574h6.867v3.651h-6.867v14.224c0,3.27,0.926,5.123,3.597,5.123
				c1.253,0,2.179-0.163,2.779-0.327l0.219,3.596c-0.926,0.382-2.398,0.655-4.251,0.655c-2.235,0-4.033-0.709-5.177-2.017
				c-1.362-1.416-1.854-3.759-1.854-6.866v-14.387h-4.087v-3.651h4.087v-6.321L1693.68,1615.872z"/>
			<path style="fill:#231F20;" d="M1740.27,1611.131v31.879c0,2.344,0.055,5.014,0.219,6.812h-4.305l-0.219-4.577h-0.109
				c-1.47,2.942-4.687,5.177-8.991,5.177c-6.376,0-11.28-5.396-11.28-13.405c-0.055-8.774,5.394-14.17,11.825-14.17
				c4.032,0,6.757,1.908,7.956,4.033h0.109v-15.749H1740.27z M1735.475,1634.182c0-0.599-0.055-1.416-0.219-2.016
				c-0.708-3.053-3.324-5.559-6.92-5.559c-4.959,0-7.902,4.36-7.902,10.19c0,5.34,2.615,9.754,7.792,9.754
				c3.215,0,6.158-2.125,7.029-5.721c0.163-0.655,0.219-1.308,0.219-2.071V1634.182z"/>
			<path style="fill:#231F20;" d="M1772.093,1636.417c0,9.754-6.758,14.005-13.134,14.005c-7.139,0-12.642-5.232-12.642-13.57
				c0-8.828,5.776-14.005,13.079-14.005C1766.97,1622.847,1772.093,1628.35,1772.093,1636.417z M1751.167,1636.688
				c0,5.776,3.324,10.136,8.01,10.136c4.578,0,8.011-4.304,8.011-10.244c0-4.469-2.233-10.136-7.902-10.136
				C1753.619,1626.444,1751.167,1631.675,1751.167,1636.688z"/>
			<path style="fill:#231F20;" d="M1778.137,1611.131h4.796v38.691h-4.796V1611.131z"/>
			<path style="fill:#231F20;" d="M1814.865,1636.417c0,9.754-6.758,14.005-13.134,14.005c-7.139,0-12.642-5.232-12.642-13.57
				c0-8.828,5.776-14.005,13.079-14.005C1809.743,1622.847,1814.865,1628.35,1814.865,1636.417z M1793.939,1636.688
				c0,5.776,3.324,10.136,8.01,10.136c4.578,0,8.011-4.304,8.011-10.244c0-4.469-2.233-10.136-7.902-10.136
				C1796.391,1626.444,1793.939,1631.675,1793.939,1636.688z"/>
			<path style="fill:#231F20;" d="M1820.911,1631.675c0-3.106-0.054-5.776-0.217-8.228h4.195l0.165,5.177h0.217
				c1.199-3.542,4.087-5.776,7.302-5.776c0.546,0,0.926,0.054,1.362,0.163v4.523c-0.49-0.109-0.98-0.163-1.635-0.163
				c-3.378,0-5.776,2.561-6.43,6.158c-0.109,0.654-0.217,1.417-0.217,2.233v14.06h-4.742V1631.675z"/>
			<path style="fill:#231F20;" d="M1840.854,1637.506c0.109,6.485,4.251,9.155,9.047,9.155c3.432,0,5.504-0.599,7.302-1.363
				l0.817,3.434c-1.689,0.763-4.577,1.635-8.774,1.635c-8.119,0-12.969-5.342-12.969-13.297c0-7.957,4.687-14.224,12.37-14.224
				c8.61,0,10.899,7.575,10.899,12.425c0,0.982-0.109,1.745-0.163,2.235H1840.854z M1854.914,1634.073
				c0.054-3.052-1.254-7.792-6.649-7.792c-4.85,0-6.975,4.468-7.357,7.792H1854.914z"/>
			<path style="fill:#231F20;" d="M1877.033,1630.585c0-2.725-0.054-4.959-0.217-7.139h4.195l0.219,4.25h0.163
				c1.472-2.506,3.924-4.85,8.284-4.85c3.596,0,6.321,2.179,7.465,5.286h0.109c0.817-1.472,1.853-2.615,2.942-3.434
				c1.58-1.199,3.324-1.853,5.83-1.853c3.488,0,8.666,2.289,8.666,11.445v15.531h-4.687v-14.931c0-5.069-1.854-8.12-5.722-8.12
				c-2.725,0-4.85,2.016-5.667,4.36c-0.219,0.654-0.382,1.526-0.382,2.398v16.293h-4.687v-15.803c0-4.196-1.853-7.248-5.504-7.248
				c-2.998,0-5.177,2.398-5.94,4.796c-0.273,0.708-0.382,1.526-0.382,2.343v15.913h-4.687V1630.585z"/>
			<path style="fill:#231F20;" d="M1937.083,1649.822l-0.382-3.324h-0.163c-1.472,2.071-4.305,3.924-8.065,3.924
				c-5.34,0-8.065-3.76-8.065-7.575c0-6.376,5.667-9.864,15.858-9.809v-0.544c0-2.181-0.6-6.104-5.994-6.104
				c-2.453,0-5.014,0.763-6.867,1.962l-1.09-3.16c2.181-1.418,5.34-2.344,8.665-2.344c8.065,0,10.027,5.504,10.027,10.79v9.864
				c0,2.289,0.109,4.523,0.436,6.322H1937.083z M1936.375,1636.361c-5.232-0.108-11.172,0.818-11.172,5.94
				c0,3.107,2.071,4.579,4.523,4.579c3.434,0,5.613-2.181,6.376-4.415c0.163-0.49,0.273-1.034,0.273-1.526V1636.361z"/>
			<path style="fill:#231F20;" d="M1971.467,1623.446c-0.109,1.908-0.218,4.033-0.218,7.248v15.313c0,6.049-1.199,9.754-3.76,12.043
				c-2.562,2.398-6.267,3.161-9.591,3.161c-3.161,0-6.649-0.763-8.774-2.179l1.199-3.651c1.743,1.09,4.468,2.07,7.738,2.07
				c4.904,0,8.501-2.561,8.501-9.209v-2.944h-0.109c-1.472,2.452-4.305,4.414-8.392,4.414c-6.539,0-11.226-5.558-11.226-12.861
				c0-8.936,5.83-14.005,11.88-14.005c4.577,0,7.085,2.398,8.228,4.577h0.109l0.217-3.978H1971.467z M1966.507,1633.855
				c0-0.818-0.054-1.526-0.271-2.181c-0.872-2.779-3.216-5.068-6.704-5.068c-4.577,0-7.846,3.869-7.846,9.973
				c0,5.177,2.615,9.482,7.792,9.482c2.942,0,5.613-1.853,6.649-4.904c0.273-0.818,0.381-1.745,0.381-2.562V1633.855z"/>
			<path style="fill:#231F20;" d="M1978.875,1630.585c0-2.725-0.054-4.959-0.218-7.139h4.251l0.273,4.36h0.108
				c1.308-2.507,4.36-4.959,8.72-4.959c3.651,0,9.318,2.179,9.318,11.226v15.749h-4.795v-15.204c0-4.25-1.581-7.793-6.105-7.793
				c-3.16,0-5.613,2.235-6.43,4.905c-0.217,0.6-0.327,1.417-0.327,2.233v15.859h-4.796V1630.585z"/>
			<path style="fill:#231F20;" d="M2023.721,1649.822l-0.382-3.324h-0.163c-1.472,2.071-4.305,3.924-8.065,3.924
				c-5.34,0-8.065-3.76-8.065-7.575c0-6.376,5.667-9.864,15.858-9.809v-0.544c0-2.181-0.6-6.104-5.994-6.104
				c-2.453,0-5.014,0.763-6.867,1.962l-1.09-3.16c2.181-1.418,5.34-2.344,8.665-2.344c8.065,0,10.027,5.504,10.027,10.79v9.864
				c0,2.289,0.109,4.523,0.436,6.322H2023.721z M2023.012,1636.361c-5.232-0.108-11.172,0.818-11.172,5.94
				c0,3.107,2.071,4.579,4.523,4.579c3.434,0,5.613-2.181,6.376-4.415c0.163-0.49,0.273-1.034,0.273-1.526V1636.361z"/>
			<path style="fill:#231F20;" d="M2061.535,1649.822l-0.382-3.324h-0.163c-1.472,2.071-4.305,3.924-8.065,3.924
				c-5.34,0-8.065-3.76-8.065-7.575c0-6.376,5.667-9.864,15.857-9.809v-0.544c0-2.181-0.599-6.104-5.994-6.104
				c-2.453,0-5.013,0.763-6.867,1.962l-1.09-3.16c2.181-1.418,5.34-2.344,8.665-2.344c8.065,0,10.027,5.504,10.027,10.79v9.864
				c0,2.289,0.109,4.523,0.436,6.322H2061.535z M2060.826,1636.361c-5.232-0.108-11.172,0.818-11.172,5.94
				c0,3.107,2.071,4.579,4.523,4.579c3.434,0,5.613-2.181,6.376-4.415c0.163-0.49,0.273-1.034,0.273-1.526V1636.361z"/>
			<path style="fill:#231F20;" d="M2073.194,1611.131h4.796v38.691h-4.796V1611.131z"/>
			<path style="fill:#231F20;" d="M2091.394,1616.035c0.055,1.635-1.144,2.943-3.052,2.943c-1.689,0-2.888-1.308-2.888-2.943
				c0-1.689,1.254-2.997,2.997-2.997C2090.25,1613.038,2091.394,1614.346,2091.394,1616.035z M2086.053,1649.822v-26.376h4.796
				v26.376H2086.053z"/>
			<path style="fill:#231F20;" d="M2116.787,1645.735h-0.109c-1.417,2.615-4.36,4.687-8.611,4.687
				c-6.157,0-11.171-5.34-11.171-13.351c0-9.864,6.376-14.224,11.933-14.224c4.087,0,6.812,2.016,8.121,4.577h0.109l0.163-3.978
				h4.523c-0.109,2.234-0.165,4.523-0.165,7.248v29.917h-4.795V1645.735z M2116.787,1634.127c0-0.654-0.055-1.417-0.219-2.016
				c-0.708-2.942-3.269-5.45-6.866-5.45c-4.959,0-7.956,4.197-7.956,10.136c0,5.232,2.506,9.81,7.792,9.81
				c3.107,0,5.776-1.908,6.866-5.232c0.219-0.654,0.382-1.58,0.382-2.289V1634.127z"/>
			<path style="fill:#231F20;" d="M2151.551,1642.629c0,2.725,0.054,5.122,0.218,7.193h-4.251l-0.273-4.304h-0.108
				c-1.254,2.125-4.033,4.904-8.72,4.904c-4.141,0-9.101-2.289-9.101-11.553v-15.422h4.796v14.604c0,5.014,1.526,8.393,5.886,8.393
				c3.215,0,5.449-2.235,6.321-4.36c0.273-0.709,0.436-1.58,0.436-2.452v-16.185h4.796V1642.629z"/>
			<path style="fill:#231F20;" d="M2174.11,1649.822l-0.382-3.324h-0.163c-1.472,2.071-4.305,3.924-8.065,3.924
				c-5.34,0-8.065-3.76-8.065-7.575c0-6.376,5.667-9.864,15.857-9.809v-0.544c0-2.181-0.6-6.104-5.994-6.104
				c-2.453,0-5.013,0.763-6.867,1.962l-1.09-3.16c2.18-1.418,5.34-2.344,8.665-2.344c8.065,0,10.027,5.504,10.027,10.79v9.864
				c0,2.289,0.109,4.523,0.436,6.322H2174.11z M2173.401,1636.361c-5.232-0.108-11.172,0.818-11.172,5.94
				c0,3.107,2.071,4.579,4.523,4.579c3.434,0,5.613-2.181,6.376-4.415c0.164-0.49,0.273-1.034,0.273-1.526V1636.361z"/>
			<path style="fill:#231F20;" d="M2184.623,1646.988c0-2.016,1.362-3.432,3.269-3.432c1.908,0,3.215,1.417,3.215,3.432
				c0,1.962-1.253,3.434-3.269,3.434C2185.93,1650.422,2184.623,1648.95,2184.623,1646.988z"/>
		</g>
	</g>
</g>
</svg>
